HIERARCHY
ROOT mixamorig:Hips
{
	OFFSET 0.000000 201.639420 0.000000
	CHANNELS 6 Xposition Yposition Zposition Xrotation Yrotation Zrotation
	JOINT mixamorig:Spine
	{
		OFFSET 0.006200 19.524994 -2.481800
		CHANNELS 3 Xrotation Yrotation Zrotation
		JOINT mixamorig:Spine1
		{
			OFFSET -0.000900 22.835007 -2.825400
			CHANNELS 3 Xrotation Yrotation Zrotation
			JOINT mixamorig:Spine2
			{
				OFFSET -0.020600 26.552490 -3.193300
				CHANNELS 3 Xrotation Yrotation Zrotation
				JOINT mixamorig:Neck
				{
					OFFSET -0.060000 30.701813 1.352200
					CHANNELS 3 Xrotation Yrotation Zrotation
					JOINT mixamorig:Head
					{
						OFFSET -0.087200 22.547607 3.670900
						CHANNELS 3 Xrotation Yrotation Zrotation
						JOINT mixamorig:HeadTop_End
						{
							OFFSET -0.830600 40.355194 7.893500
							CHANNELS 3 Xrotation Yrotation Zrotation
							End Site
							{
								OFFSET 0.000000 30.592346 0.000000
							}
						}
						JOINT mixamorig:RightEye
						{
							OFFSET -6.302100 18.118591 16.197100
							CHANNELS 3 Xrotation Yrotation Zrotation
							End Site
							{
								OFFSET 0.000000 30.592346 0.000000
							}
						}
						JOINT mixamorig:LeftEye
						{
							OFFSET 6.741500 18.382690 16.401899
							CHANNELS 3 Xrotation Yrotation Zrotation
							End Site
							{
								OFFSET 0.000000 30.592346 0.000000
							}
						}
					}
				}
				JOINT mixamorig:LeftShoulder
				{
					OFFSET 11.924900 18.230499 1.425400
					CHANNELS 3 Xrotation Yrotation Zrotation
					JOINT mixamorig:LeftArm
					{
						OFFSET 25.435989 -0.697632 -5.229300
						CHANNELS 3 Xrotation Yrotation Zrotation
						JOINT mixamorig:LeftForeArm
						{
							OFFSET 54.684776 0.000000 0.000000
							CHANNELS 3 Xrotation Yrotation Zrotation
							JOINT mixamorig:LeftHand
							{
								OFFSET 55.098175 0.000000 0.000000
								CHANNELS 3 Xrotation Yrotation Zrotation
								JOINT mixamorig:LeftHandMiddle1
								{
									OFFSET 23.369751 0.000000 0.000000
									CHANNELS 3 Xrotation Yrotation Zrotation
									JOINT mixamorig:LeftHandMiddle2
									{
										OFFSET 6.378677 0.000000 0.000000
										CHANNELS 3 Xrotation Yrotation Zrotation
										JOINT mixamorig:LeftHandMiddle3
										{
											OFFSET 6.148331 0.000000 0.000000
											CHANNELS 3 Xrotation Yrotation Zrotation
											JOINT mixamorig:LeftHandMiddle4
											{
												OFFSET 6.582504 0.000000 0.000000
												CHANNELS 3 Xrotation Yrotation Zrotation
												End Site
												{
													OFFSET -1.168900 6.395691 1.028606
												}
											}
										}
									}
								}
								JOINT mixamorig:LeftHandThumb1
								{
									OFFSET 7.235672 -3.848206 5.434273
									CHANNELS 3 Xrotation Yrotation Zrotation
									JOINT mixamorig:LeftHandThumb2
									{
										OFFSET 6.568451 -3.792297 3.792300
										CHANNELS 3 Xrotation Yrotation Zrotation
										JOINT mixamorig:LeftHandThumb3
										{
											OFFSET 6.063080 -3.500519 3.500518
											CHANNELS 3 Xrotation Yrotation Zrotation
											JOINT mixamorig:LeftHandThumb4
											{
												OFFSET 4.793182 -2.767334 2.767349
												CHANNELS 3 Xrotation Yrotation Zrotation
												End Site
												{
													OFFSET 0.101639 6.054260 1.275483
												}
											}
										}
									}
								}
								JOINT mixamorig:LeftHandIndex1
								{
									OFFSET 23.101074 -0.309540 4.992809
									CHANNELS 3 Xrotation Yrotation Zrotation
									JOINT mixamorig:LeftHandIndex2
									{
										OFFSET 6.226883 0.000000 0.000000
										CHANNELS 3 Xrotation Yrotation Zrotation
										JOINT mixamorig:LeftHandIndex3
										{
											OFFSET 6.094330 0.000000 0.000000
											CHANNELS 3 Xrotation Yrotation Zrotation
											JOINT mixamorig:LeftHandIndex4
											{
												OFFSET 5.482605 0.000000 0.000000
												CHANNELS 3 Xrotation Yrotation Zrotation
												End Site
												{
													OFFSET -1.427902 5.233032 0.797164
												}
											}
										}
									}
								}
								JOINT mixamorig:LeftHandRing1
								{
									OFFSET 22.299240 0.021149 -3.964172
									CHANNELS 3 Xrotation Yrotation Zrotation
									JOINT mixamorig:LeftHandRing2
									{
										OFFSET 6.321869 0.000000 0.000000
										CHANNELS 3 Xrotation Yrotation Zrotation
										JOINT mixamorig:LeftHandRing3
										{
											OFFSET 5.899796 0.000000 0.000000
											CHANNELS 3 Xrotation Yrotation Zrotation
											JOINT mixamorig:LeftHandRing4
											{
												OFFSET 6.517899 0.000000 0.000000
												CHANNELS 3 Xrotation Yrotation Zrotation
												End Site
												{
													OFFSET -1.637299 6.232208 0.980890
												}
											}
										}
									}
								}
								JOINT mixamorig:LeftHandPinky1
								{
									OFFSET 20.463791 -0.302338 -8.562233
									CHANNELS 3 Xrotation Yrotation Zrotation
									JOINT mixamorig:LeftHandPinky2
									{
										OFFSET 6.908646 0.000000 0.000000
										CHANNELS 3 Xrotation Yrotation Zrotation
										JOINT mixamorig:LeftHandPinky3
										{
											OFFSET 4.622849 0.000000 0.000000
											CHANNELS 3 Xrotation Yrotation Zrotation
											JOINT mixamorig:LeftHandPinky4
											{
												OFFSET 5.216080 0.000000 0.000000
												CHANNELS 3 Xrotation Yrotation Zrotation
												End Site
												{
													OFFSET -0.606308 5.116241 0.814926
												}
											}
										}
									}
								}
							}
						}
					}
				}
				JOINT mixamorig:RightShoulder
				{
					OFFSET -12.001300 18.284088 1.348900
					CHANNELS 3 Xrotation Yrotation Zrotation
					JOINT mixamorig:RightArm
					{
						OFFSET -25.308500 -0.751312 -5.164599
						CHANNELS 3 Xrotation Yrotation Zrotation
						JOINT mixamorig:RightForeArm
						{
							OFFSET -54.684429 0.000000 0.000000
							CHANNELS 3 Xrotation Yrotation Zrotation
							JOINT mixamorig:RightHand
							{
								OFFSET -55.150291 0.000000 0.000000
								CHANNELS 3 Xrotation Yrotation Zrotation
								JOINT mixamorig:RightHandMiddle1
								{
									OFFSET -23.317566 0.000000 0.000000
									CHANNELS 3 Xrotation Yrotation Zrotation
									JOINT mixamorig:RightHandMiddle2
									{
										OFFSET -6.378403 0.000000 0.000000
										CHANNELS 3 Xrotation Yrotation Zrotation
										JOINT mixamorig:RightHandMiddle3
										{
											OFFSET -6.148193 0.000000 0.000000
											CHANNELS 3 Xrotation Yrotation Zrotation
											JOINT mixamorig:RightHandMiddle4
											{
												OFFSET -6.583389 0.000000 0.000000
												CHANNELS 3 Xrotation Yrotation Zrotation
												End Site
												{
													OFFSET 1.171692 6.395905 1.029786
												}
											}
										}
									}
								}
								JOINT mixamorig:RightHandThumb1
								{
									OFFSET -7.190521 -3.860474 5.435846
									CHANNELS 3 Xrotation Yrotation Zrotation
									JOINT mixamorig:RightHandThumb2
									{
										OFFSET -6.567429 -3.791718 3.791708
										CHANNELS 3 Xrotation Yrotation Zrotation
										JOINT mixamorig:RightHandThumb3
										{
											OFFSET -6.062469 -3.500153 3.500166
											CHANNELS 3 Xrotation Yrotation Zrotation
											JOINT mixamorig:RightHandThumb4
											{
												OFFSET -4.792618 -2.767029 2.767022
												CHANNELS 3 Xrotation Yrotation Zrotation
												End Site
												{
													OFFSET -0.100327 6.053253 1.276754
												}
											}
										}
									}
								}
								JOINT mixamorig:RightHandIndex1
								{
									OFFSET -23.048981 -0.310791 4.992554
									CHANNELS 3 Xrotation Yrotation Zrotation
									JOINT mixamorig:RightHandIndex2
									{
										OFFSET -6.227539 0.000000 0.000000
										CHANNELS 3 Xrotation Yrotation Zrotation
										JOINT mixamorig:RightHandIndex3
										{
											OFFSET -6.095047 0.000000 0.000000
											CHANNELS 3 Xrotation Yrotation Zrotation
											JOINT mixamorig:RightHandIndex4
											{
												OFFSET -5.484772 0.000000 0.000000
												CHANNELS 3 Xrotation Yrotation Zrotation
												End Site
												{
													OFFSET 1.420593 5.237305 0.797056
												}
											}
										}
									}
								}
								JOINT mixamorig:RightHandRing1
								{
									OFFSET -22.246323 0.020569 -3.963762
									CHANNELS 3 Xrotation Yrotation Zrotation
									JOINT mixamorig:RightHandRing2
									{
										OFFSET -6.322128 0.000000 0.000000
										CHANNELS 3 Xrotation Yrotation Zrotation
										JOINT mixamorig:RightHandRing3
										{
											OFFSET -5.900024 0.000000 0.000000
											CHANNELS 3 Xrotation Yrotation Zrotation
											JOINT mixamorig:RightHandRing4
											{
												OFFSET -6.518356 0.000000 0.000000
												CHANNELS 3 Xrotation Yrotation Zrotation
												End Site
												{
													OFFSET 1.636398 6.232697 0.982186
												}
											}
										}
									}
								}
								JOINT mixamorig:RightHandPinky1
								{
									OFFSET -20.411011 -0.303314 -8.561701
									CHANNELS 3 Xrotation Yrotation Zrotation
									JOINT mixamorig:RightHandPinky2
									{
										OFFSET -6.907349 0.000000 0.000000
										CHANNELS 3 Xrotation Yrotation Zrotation
										JOINT mixamorig:RightHandPinky3
										{
											OFFSET -4.623840 0.000000 0.000000
											CHANNELS 3 Xrotation Yrotation Zrotation
											JOINT mixamorig:RightHandPinky4
											{
												OFFSET -5.218353 0.000000 0.000000
												CHANNELS 3 Xrotation Yrotation Zrotation
												End Site
												{
													OFFSET 0.602097 5.118835 0.816273
												}
											}
										}
									}
								}
							}
						}
					}
				}
			}
		}
	}
	JOINT mixamorig:LeftUpLeg
	{
		OFFSET 18.168400 -13.561905 -0.039000
		CHANNELS 3 Xrotation Yrotation Zrotation
		JOINT mixamorig:LeftLeg
		{
			OFFSET 0.577358 -80.825211 -3.695000
			CHANNELS 3 Xrotation Yrotation Zrotation
			JOINT mixamorig:LeftFoot
			{
				OFFSET -0.577356 -83.370262 -6.520700
				CHANNELS 3 Xrotation Yrotation Zrotation
				JOINT mixamorig:LeftToeBase
				{
					OFFSET 0.750401 -20.798306 25.135401
					CHANNELS 3 Xrotation Yrotation Zrotation
					JOINT mixamorig:LeftToe_End
					{
						OFFSET -0.000500 0.001200 19.917799
						CHANNELS 3 Xrotation Yrotation Zrotation
						End Site
						{
							OFFSET 0.000000 19.917805 0.000000
						}
					}
				}
			}
		}
	}
	JOINT mixamorig:RightUpLeg
	{
		OFFSET -18.162500 -13.585098 -0.041000
		CHANNELS 3 Xrotation Yrotation Zrotation
		JOINT mixamorig:RightLeg
		{
			OFFSET -0.595024 -80.945297 -3.631900
			CHANNELS 3 Xrotation Yrotation Zrotation
			JOINT mixamorig:RightFoot
			{
				OFFSET 0.595024 -83.218193 -6.561200
				CHANNELS 3 Xrotation Yrotation Zrotation
				JOINT mixamorig:RightToeBase
				{
					OFFSET -0.753601 -20.807106 25.115000
					CHANNELS 3 Xrotation Yrotation Zrotation
					JOINT mixamorig:RightToe_End
					{
						OFFSET 0.000299 0.001700 19.918200
						CHANNELS 3 Xrotation Yrotation Zrotation
						End Site
						{
							OFFSET 0.000000 19.918203 0.000000
						}
					}
				}
			}
		}
	}
}
MOTION
Frames: 5
Frame Time: 0.033333
-0.792042 176.482452 0.423288 -5.148943 -62.201713 -2.899021 15.857177 -2.270557 -1.301520 2.915374 -0.351941 -0.230946 2.917206 -0.336766 -0.230893 4.033183 7.658851 -2.731400 -13.490296 39.380538 -4.010154 0.000001 -0.000002 0.000000 0.000001 -0.000002 0.000000 0.000001 -0.000002 0.000000 0.560089 -1.300308 -8.165594 -33.632063 14.854451 -43.558316 0.000005 -69.735753 0.000010 43.130479 -15.740687 9.575453 6.554733 6.873481 -87.274286 9.404161 6.404057 -111.556039 9.208632 6.477401 -109.813056 -0.000004 0.000001 -0.000004 4.891662 7.994784 1.884001 10.475056 36.544333 -16.206451 18.107166 67.043238 3.186311 0.000004 -0.000002 0.000000 7.775676 6.956306 -86.152714 10.250100 6.003533 -119.372049 9.029912 6.538635 -108.236410 -0.000000 0.000000 -0.000003 3.127890 6.869499 -89.819686 9.007631 6.545902 -108.040711 8.561884 6.673732 -104.169927 0.000004 -0.000001 -0.000000 1.160387 7.315415 -94.148414 8.017678 2.700463 -99.510720 10.792551 5.665879 -124.703927 0.000001 0.000001 -0.000001 0.655995 0.288006 7.242161 -4.368481 46.705725 59.128893 0.000001 110.873682 0.000015 -16.066874 -6.723414 7.607637 6.610142 -6.940037 87.289442 9.494161 -6.467143 111.542604 9.295814 -6.532941 109.815351 0.000002 0.000001 -0.000002 2.101968 -10.083001 3.633766 25.660754 -30.716710 6.844826 36.126250 -53.497853 18.680801 -0.000001 -0.000000 -0.000000 9.556170 -7.137679 86.157919 10.350156 -6.061946 119.375533 9.118078 -6.602302 108.238841 0.000001 0.000000 0.000001 1.946424 -7.142796 92.181135 8.379087 -6.800026 101.912337 8.643606 -6.731542 104.171648 0.000000 -0.000000 0.000002 -2.850702 -7.674942 94.127499 8.100956 -6.852392 99.572683 10.897912 -5.720981 124.707766 -0.000001 0.000000 -0.000001 -35.097012 9.839208 28.804178 42.125362 0.412592 1.125309 -2.001074 1.204728 -19.565523 -0.000096 0.000010 -0.000002 -0.000000 -0.000002 -0.000000 -23.068735 -12.347806 -28.758081 46.899661 7.086617 -7.139986 -21.302349 -5.343759 22.049203 -1.241427 0.000030 0.000004 -0.000000 0.000000 0.000000 
-1.040919 176.492020 -0.235818 -4.858165 -61.746611 -2.876682 16.034122 -2.211366 -1.279137 2.946967 -0.342528 -0.229025 2.948689 -0.327739 -0.228974 3.972359 7.605849 -2.692555 -13.731725 39.127917 -3.948547 -0.000001 -0.000001 -0.000000 -0.000001 -0.000001 -0.000000 -0.000001 -0.000001 -0.000000 0.557741 -1.291173 -8.047432 -34.067286 14.766068 -43.920360 -0.000022 -69.273513 -0.000028 40.725631 -15.551963 9.601652 6.554734 6.873458 -87.274293 9.404149 6.404047 -111.555998 9.208629 6.477413 -109.813036 -0.000004 0.000002 -0.000002 4.891665 7.994763 1.883996 10.475056 36.544336 -16.206446 18.107163 67.043224 3.186308 0.000000 -0.000000 0.000001 7.775665 6.956300 -86.152721 10.250108 6.003558 -119.372049 9.029914 6.538628 -108.236410 -0.000001 -0.000001 -0.000002 3.127871 6.869502 -89.819672 9.007639 6.545908 -108.040718 8.561877 6.673733 -104.169947 0.000001 0.000001 -0.000001 1.160388 7.315410 -94.148414 8.017667 2.700464 -99.510720 10.792558 5.665902 -124.703927 0.000000 -0.000004 0.000003 0.664633 0.390366 7.329811 -4.015603 45.854929 57.450647 -0.000004 111.541845 -0.000009 -17.670224 -6.700293 7.507523 6.610160 -6.940041 87.289428 9.494181 -6.467132 111.542624 9.295798 -6.532933 109.815358 0.000002 -0.000000 -0.000000 2.101987 -10.082999 3.633772 25.660751 -30.716703 6.844822 36.126260 -53.497860 18.680824 0.000000 0.000000 0.000003 9.556177 -7.137697 86.157912 10.350184 -6.061950 119.375533 9.118068 -6.602297 108.238827 0.000001 0.000001 -0.000005 1.946431 -7.142801 92.181141 8.379098 -6.800035 101.912324 8.643615 -6.731552 104.171668 -0.000000 0.000001 -0.000001 -2.850685 -7.674966 94.127506 8.100973 -6.852418 99.572677 10.897912 -5.720970 124.707752 -0.000001 0.000000 -0.000001 -35.317057 9.607803 28.974803 41.657068 0.247156 1.332974 -1.514918 1.134875 -19.744745 -0.000051 -0.000000 0.000004 0.000000 -0.000000 -0.000000 -22.986211 -12.498088 -28.387530 47.139958 6.705038 -6.855391 -21.504495 -5.337249 21.858697 -1.322527 0.000031 0.000003 0.000000 -0.000000 -0.000000 
-1.300211 176.523438 -0.978527 -4.339663 -61.147139 -2.846600 16.179145 -2.132835 -1.031357 2.971433 -0.331079 -0.181341 2.973169 -0.315454 -0.181271 3.895107 7.530384 -2.587390 -14.081372 38.810648 -3.846878 -0.000000 0.000000 -0.000000 -0.000000 0.000000 -0.000000 -0.000000 0.000000 -0.000000 0.561998 -1.517109 -8.109321 -34.933139 14.779401 -43.849579 -0.000009 -66.894463 -0.000021 31.143976 -15.508669 8.251159 6.554743 6.873472 -87.274286 9.404154 6.404047 -111.556066 9.208629 6.477404 -109.813056 -0.000004 -0.000004 0.000003 4.891663 7.994798 1.884003 10.475050 36.544330 -16.206434 18.107175 67.043252 3.186310 -0.000002 -0.000000 0.000000 7.775683 6.956293 -86.152721 10.250084 6.003550 -119.372049 9.029914 6.538633 -108.236410 -0.000002 0.000000 -0.000003 3.127877 6.869510 -89.819672 9.007628 6.545914 -108.040725 8.561897 6.673723 -104.169940 0.000003 -0.000000 -0.000000 1.160390 7.315413 -94.148400 8.017682 2.700468 -99.510713 10.792560 5.665897 -124.703955 0.000000 -0.000002 0.000001 0.671608 0.483902 7.383838 -3.507060 44.890254 54.570083 0.000037 112.054547 -0.000053 -19.357849 -6.832479 7.972535 6.610136 -6.940049 87.289428 9.494159 -6.467125 111.542604 9.295804 -6.532937 109.815344 0.000001 -0.000001 0.000001 2.101960 -10.083005 3.633769 25.660773 -30.716706 6.844825 36.126264 -53.497846 18.680829 0.000004 -0.000001 -0.000002 9.556143 -7.137689 86.157905 10.350178 -6.061959 119.375546 9.118063 -6.602318 108.238827 -0.000001 0.000000 -0.000006 1.946407 -7.142794 92.181135 8.379069 -6.800019 101.912331 8.643624 -6.731567 104.171668 -0.000000 0.000000 0.000001 -2.850713 -7.674963 94.127486 8.100953 -6.852419 99.572663 10.897914 -5.720980 124.707752 0.000000 0.000001 -0.000005 -35.860068 9.445387 29.481637 41.144008 -0.479223 1.432151 -1.006288 1.044032 -19.753829 -0.000008 0.000007 0.000006 0.000000 -0.000002 0.000000 -22.819812 -12.722377 -27.795615 47.248332 6.186057 -6.439660 -21.640934 -5.324218 21.697368 -1.507096 0.000021 -0.000005 0.000000 0.000001 0.000000 
-1.546859 176.537170 -1.807778 -3.677257 -60.279206 -2.759338 16.347921 -2.086436 -0.739071 3.000905 -0.323710 -0.120362 3.002745 -0.306244 -0.120329 3.779244 7.397813 -2.343770 -14.646362 38.266138 -3.577576 0.000001 0.000000 -0.000000 0.000001 0.000000 -0.000000 0.000001 0.000000 -0.000000 0.574171 -1.991361 -8.553874 -34.871848 13.081061 -43.152514 0.000029 -63.038015 0.000025 11.474807 -14.581269 5.486662 6.554747 6.873456 -87.274286 9.404149 6.404035 -111.556045 9.208621 6.477406 -109.813056 0.000003 0.000001 -0.000000 4.891659 7.994798 1.883992 10.475067 36.544336 -16.206439 18.107151 67.043231 3.186317 -0.000002 -0.000001 0.000001 7.775672 6.956318 -86.152735 10.250108 6.003555 -119.372077 9.029918 6.538636 -108.236410 0.000002 -0.000002 -0.000002 3.127863 6.869523 -89.819658 9.007633 6.545900 -108.040718 8.561881 6.673726 -104.169947 -0.000001 -0.000002 -0.000000 1.160384 7.315416 -94.148427 8.017676 2.700466 -99.510713 10.792548 5.665908 -124.703955 -0.000003 0.000001 -0.000002 0.673594 0.519873 7.382931 -3.176442 43.786953 50.861297 -0.000067 112.118143 0.000074 -21.453607 -7.135715 8.787283 6.610151 -6.940061 87.289435 9.494194 -6.467138 111.542631 9.295802 -6.532942 109.815338 0.000001 -0.000001 -0.000001 2.101985 -10.083015 3.633767 25.660741 -30.716689 6.844825 36.126264 -53.497856 18.680829 -0.000001 -0.000000 -0.000000 9.556169 -7.137710 86.157925 10.350195 -6.061966 119.375546 9.118066 -6.602299 108.238814 0.000002 0.000001 -0.000003 1.946417 -7.142818 92.181121 8.379091 -6.800009 101.912344 8.643603 -6.731542 104.171648 -0.000000 0.000000 0.000000 -2.850692 -7.674970 94.127493 8.100953 -6.852402 99.572690 10.897913 -5.720974 124.707752 0.000000 0.000001 -0.000004 -36.863453 9.533503 30.362667 40.657350 -1.932974 1.180912 -0.400732 1.001520 -19.330651 -0.000240 -0.000002 0.000001 0.000000 -0.000002 0.000000 -22.586285 -13.060777 -27.163205 47.280513 5.527406 -5.910054 -21.785143 -5.315628 21.551091 -1.721968 0.000024 0.000007 -0.000000 0.000001 0.000000 
-1.736244 176.374100 -2.608199 -2.875808 -59.016215 -2.489955 16.550293 -2.063393 -0.603599 3.039847 -0.318017 -0.093141 3.041811 -0.298722 -0.093223 3.602407 7.172705 -1.896113 -15.408550 37.332649 -3.095668 -0.000001 -0.000001 0.000000 -0.000001 -0.000001 0.000000 -0.000001 -0.000001 0.000000 0.583523 -2.552774 -9.044221 -32.718553 8.519550 -41.973794 0.000016 -59.777139 0.000011 -15.798509 -12.398984 3.680943 6.554743 6.873483 -87.274293 9.404150 6.404053 -111.556039 9.208635 6.477422 -109.813070 -0.000001 0.000002 -0.000003 4.891671 7.994794 1.884004 10.475064 36.544333 -16.206461 18.107147 67.043252 3.186324 -0.000001 0.000001 -0.000002 7.775671 6.956318 -86.152714 10.250110 6.003548 -119.372049 9.029894 6.538635 -108.236403 -0.000002 0.000001 -0.000000 3.127869 6.869520 -89.819658 9.007632 6.545903 -108.040738 8.561878 6.673719 -104.169927 -0.000001 -0.000000 0.000003 1.160383 7.315430 -94.148407 8.017670 2.700465 -99.510713 10.792551 5.665887 -124.703941 0.000001 0.000001 0.000001 0.670483 0.480105 7.354562 -3.425043 42.584720 47.048699 0.000002 111.570703 0.000004 -24.588983 -7.435884 9.365925 6.610135 -6.940045 87.289428 9.494179 -6.467133 111.542631 9.295794 -6.532952 109.815331 0.000003 -0.000001 0.000001 2.101971 -10.083003 3.633761 25.660761 -30.716699 6.844841 36.126260 -53.497860 18.680837 0.000001 -0.000001 -0.000003 9.556160 -7.137701 86.157919 10.350181 -6.061948 119.375546 9.118071 -6.602312 108.238834 0.000001 0.000000 0.000001 1.946417 -7.142804 92.181121 8.379101 -6.800023 101.912331 8.643613 -6.731552 104.171641 -0.000001 0.000000 0.000001 -2.850707 -7.674966 94.127486 8.100958 -6.852406 99.572690 10.897903 -5.720970 124.707739 -0.000001 -0.000000 0.000001 -38.711566 9.829741 31.440706 40.724839 -3.061222 0.424584 0.463871 0.912083 -18.166399 -0.872173 -0.000007 0.000002 0.000000 -0.000002 0.000000 -22.459574 -13.543244 -26.787686 47.466874 4.800396 -5.286814 -21.986555 -5.320533 21.412908 -1.928302 0.000037 0.000003 0.000000 0.000000 0.000000 
